<?xml version="1.0" encoding="UTF-8"?>
<!DOCTYPE svg PUBLIC "-//W3C//DTD SVG 1.1//EN" "http://www.w3.org/Graphics/SVG/1.1/DTD/svg11.dtd">
<!-- Creator: CorelDRAW X7 -->
<svg xmlns="http://www.w3.org/2000/svg" xml:space="preserve" width="285.75mm" height="357.187mm" version="1.1" style="shape-rendering:geometricPrecision; text-rendering:geometricPrecision; image-rendering:optimizeQuality; fill-rule:evenodd; clip-rule:evenodd"
viewBox="0 0 28575 35719"
 xmlns:xlink="http://www.w3.org/1999/xlink">
 <defs>
  <style type="text/css">
   <![CDATA[
    .str0 {stroke:#FEFEFE;stroke-width:7.62}
    .fil1 {fill:none}
    .fil0 {fill:#FEFEFE}
   ]]>
  </style>
 </defs>
 <g id="Layer_x0020_1">
  <metadata id="CorelCorpID_0Corel-Layer"/>
  <g id="_393234416">
   <path class="fil0" d="M15201 19060c-91,140 -778,692 -950,835 -226,-104 -538,-458 -749,-624 -144,52 -251,150 -335,250 396,382 1021,1001 1048,1081 38,116 -174,20 1248,-1161 717,-595 1419,-978 1202,-1787 -222,-823 -1273,-1128 -1927,-512 -231,218 -461,658 -298,1111 125,348 502,625 761,807zm341 -287c134,-45 691,-425 722,-746 101,-1046 -1524,-988 -1439,-43 31,334 490,634 717,789z"/>
   <path class="fil0" d="M12622 19064l-554 522c-199,194 -328,372 -454,668 -151,355 -403,1683 25,1795 552,145 -47,-681 378,-1641 450,-1015 1985,-1429 2165,-2283 272,-1288 -1822,-1917 -2252,-502 -263,864 403,1083 692,1441zm380 -273c1175,-579 789,-1509 78,-1544 -534,-26 -1123,609 -497,1198l419 346z"/>
   <path class="fil0" d="M15777 19479c175,239 1120,744 956,2018 -16,127 -79,311 -50,417 40,151 199,188 325,109 303,-191 148,-1330 1,-1681 -196,-470 -551,-920 -925,-1125 -66,40 -94,61 -155,108 -119,92 -80,35 -152,154z"/>
   <path class="fil0" d="M15103 16529c-229,-218 -694,-591 -830,-705 -227,103 -539,458 -750,624 -143,-52 -250,-150 -335,-250 135,-190 530,-472 706,-664 -58,-149 -106,-118 -197,-297 -196,-384 -86,-921 395,-1040 682,-169 958,654 597,1123 -462,-224 -215,-655 -356,-728 -68,-35 -277,57 -299,170 -51,269 192,457 616,810 280,234 539,460 834,705 106,88 212,172 314,252l-695 0z"/>
   <path class="fil0" d="M12097 16529l-421 -396c-199,-194 -328,-372 -454,-668 -151,-355 -403,-1683 25,-1795 552,-145 -47,681 378,1640 228,517 737,877 1206,1219l-734 0z"/>
   <path class="fil0" d="M16289 16239c176,-238 1121,-743 957,-2018 -16,-126 -79,-310 -51,-416 41,-151 200,-189 325,-109 303,190 149,1330 2,1681 -196,470 -551,920 -925,1125 -66,-40 -94,-62 -155,-108 -119,-92 -80,-36 -153,-155z"/>
   <path class="fil0" d="M11630 18021c-219,228 -594,691 -708,827 104,226 459,537 626,747 -53,143 -150,250 -251,334 -190,-134 -473,-528 -666,-703 -150,57 -119,106 -299,197 -385,194 -924,84 -1043,-394 -170,-680 656,-955 1127,-596 -288,591 -866,16 -670,593 401,158 549,-108 923,-553 234,-279 462,-538 708,-832 88,-105 172,-210 253,-312l0 692z"/>
   <path class="fil0" d="M11810 20615l-398 419c-195,199 -373,327 -670,453 -356,150 -1689,401 -1802,-25 -145,-550 684,47 1647,-377 518,-227 880,-734 1223,-1201l0 731z"/>
   <path class="fil0" d="M11422 17264c-239,-174 -746,-1116 -2025,-953 -127,16 -312,79 -418,51 -152,-41 -189,-199 -110,-324 192,-302 1335,-148 1687,-2 472,196 924,550 1130,922 -41,66 -62,93 -109,154 -92,119 -36,80 -155,152z"/>
   <path class="fil0" d="M16945 18025c219,228 594,691 708,827 -104,226 -459,537 -626,747 53,143 151,250 251,334 190,-134 473,-528 666,-703 150,57 119,106 299,196 385,195 924,85 1043,-394 170,-679 -656,-954 -1127,-595 288,591 866,16 670,593 -401,158 -549,-108 -923,-554 -234,-278 -462,-537 -708,-831 -88,-105 -172,-211 -253,-313l0 693z"/>
   <path class="fil0" d="M16765 20619l398 419c195,198 373,327 670,453 356,150 1689,401 1802,-25 145,-551 -684,47 -1647,-377 -518,-228 -880,-735 -1223,-1202l0 732z"/>
   <path class="fil0" d="M17153 17268c239,-174 746,-1116 2025,-953 127,16 312,79 418,50 152,-40 189,-198 110,-323 -192,-302 -1335,-149 -1687,-2 -472,196 -924,549 -1130,922 41,65 62,93 109,154 92,119 36,80 155,152z"/>
   <g>
    <path class="fil0" d="M10953 20230c-228,604 -1588,480 -1774,155 298,65 1387,97 1450,-224 19,-89 107,-146 196,-128 90,19 147,107 128,197z"/>
   </g>
   <path class="fil1" d="M10791 20195c-71,338 -770,328 -1006,328 -200,0 -451,6 -606,-138"/>
   <path class="fil0" d="M17652 20274c228,605 1588,481 1774,156 -298,65 -1386,96 -1450,-224 -19,-89 -107,-147 -196,-128 -89,19 -147,107 -128,196z"/>
   <path class="fil0 str0" d="M10499 20013c-114,160 -351,226 -538,213 -22,-1 -39,-21 -37,-43 1,-22 21,-39 43,-37 158,10 369,-44 466,-180 13,-18 39,-22 57,-9 18,13 22,38 9,56z"/>
   <path class="fil0" d="M18153 20033c36,170 293,226 432,211 15,-2 30,-7 33,-22 3,-15 -6,-33 -22,-33 -172,3 -305,-35 -395,-185 -8,-13 -25,-18 -38,-10 -14,8 -18,25 -10,39z"/>
   <path class="fil1" d="M18231 20033c0,0 78,130 414,199"/>
  </g>
 </g>
</svg>
